<svg xmlns="http://www.w3.org/2000/svg" viewBox="0 0 1400 800">
    <!-- Definitions for arrowheads -->
    <defs>
        <marker id="forward-arrow" viewBox="0 0 10 10" refX="9" refY="5"
                markerWidth="6" markerHeight="6" orient="auto">
            <path d="M 0 0 L 10 5 L 0 10 z" fill="#4A90E2"/>
        </marker>
        <marker id="backward-arrow" viewBox="0 0 10 10" refX="9" refY="5"
                markerWidth="6" markerHeight="6" orient="auto">
            <path d="M 0 0 L 10 5 L 0 10 z" fill="#E24A4A"/>
        </marker>
    </defs>

    <!-- Background -->
    <rect width="1400" height="800" fill="#ffffff"/>
    
    <!-- Title -->
    <text x="700" y="50" text-anchor="middle" font-size="28" font-weight="bold">Neural Network Forward and Backward Propagation</text>

    <!-- Layer Boxes -->
    <!-- Input Layer -->
    <rect x="100" y="150" width="120" height="300" rx="10" fill="#B8E6FF" stroke="#2980b9" stroke-width="3"/>
    <text x="160" y="180" text-anchor="middle" font-size="20" font-weight="bold">Input Layer</text>
    <text x="160" y="210" text-anchor="middle" font-size="18">(784)</text>
    
    <!-- Hidden Layer -->
    <rect x="600" y="150" width="120" height="300" rx="10" fill="#B8E6FF" stroke="#2980b9" stroke-width="3"/>
    <text x="660" y="180" text-anchor="middle" font-size="20" font-weight="bold">Hidden Layer</text>
    <text x="660" y="210" text-anchor="middle" font-size="18">(512)</text>
    
    <!-- Output Layer -->
    <rect x="1100" y="150" width="120" height="300" rx="10" fill="#B8E6FF" stroke="#2980b9" stroke-width="3"/>
    <text x="1160" y="180" text-anchor="middle" font-size="20" font-weight="bold">Output Layer</text>
    <text x="1160" y="210" text-anchor="middle" font-size="18">(10)</text>

    <!-- Forward Pass -->
    <!-- First Layer to Hidden -->
    <path d="M 230 250 L 590 250" stroke="#4A90E2" stroke-width="3" marker-end="url(#forward-arrow)"/>
    <rect x="300" y="180" width="220" height="60" rx="5" fill="#E3F2FD"/>
    <text x="410" y="205" text-anchor="middle" font-size="16" font-weight="bold">Forward Pass (1)</text>
    <text x="410" y="230" text-anchor="middle" font-size="14">hidden = sigmoid(W₁x + b₁)</text>

    <!-- Hidden to Output -->
    <path d="M 730 250 L 1090 250" stroke="#4A90E2" stroke-width="3" marker-end="url(#forward-arrow)"/>
    <rect x="800" y="180" width="220" height="60" rx="5" fill="#E3F2FD"/>
    <text x="910" y="205" text-anchor="middle" font-size="16" font-weight="bold">Forward Pass (2)</text>
    <text x="910" y="230" text-anchor="middle" font-size="14">output = sigmoid(W₂h + b₂)</text>

    <!-- Backward Pass -->
    <!-- Output to Hidden -->
    <path d="M 1090 350 L 730 350" stroke="#E24A4A" stroke-width="3" marker-end="url(#backward-arrow)"/>
    <rect x="800" y="360" width="220" height="80" rx="5" fill="#FFEBEE"/>
    <text x="910" y="380" text-anchor="middle" font-size="16" font-weight="bold">Backward Pass (1)</text>
    <text x="910" y="400" text-anchor="middle" font-size="14">δ₂ = (target - output) ⊙</text>
    <text x="910" y="420" text-anchor="middle" font-size="14">sigmoid'(output)</text>

    <!-- Hidden to Input -->
    <path d="M 590 350 L 230 350" stroke="#E24A4A" stroke-width="3" marker-end="url(#backward-arrow)"/>
    <rect x="300" y="360" width="220" height="80" rx="5" fill="#FFEBEE"/>
    <text x="410" y="380" text-anchor="middle" font-size="16" font-weight="bold">Backward Pass (2)</text>
    <text x="410" y="400" text-anchor="middle" font-size="14">δ₁ = (W₂ᵀδ₂) ⊙</text>
    <text x="410" y="420" text-anchor="middle" font-size="14">sigmoid'(hidden)</text>

    <!-- Weight Updates Box -->
    <rect x="200" y="500" width="1000" height="160" rx="10" fill="#F5F5F5" stroke="#666" stroke-width="2"/>
    <text x="700" y="530" text-anchor="middle" font-size="20" font-weight="bold">Weight Updates (Mini-batch SGD)</text>
    
    <!-- Hidden Layer Updates -->
    <text x="450" y="570" text-anchor="middle" font-size="16" font-weight="bold">Hidden Layer Updates:</text>
    <text x="450" y="595" text-anchor="middle" font-size="14">W₁ += (η/m) Σ(δ₁ xᵀ)</text>
    <text x="450" y="620" text-anchor="middle" font-size="14">b₁ += (η/m) Σδ₁</text>
    
    <!-- Output Layer Updates -->
    <text x="950" y="570" text-anchor="middle" font-size="16" font-weight="bold">Output Layer Updates:</text>
    <text x="950" y="595" text-anchor="middle" font-size="14">W₂ += (η/m) Σ(δ₂ hᵀ)</text>
    <text x="950" y="620" text-anchor="middle" font-size="14">b₂ += (η/m) Σδ₂</text>

    <!-- Legend -->
    <rect x="500" y="690" width="400" height="80" rx="5" fill="white" stroke="#666"/>
    <text x="700" y="715" text-anchor="middle" font-size="16" font-weight="bold">Legend</text>
    
    <line x1="550" y1="745" x2="620" y2="745" stroke="#4A90E2" stroke-width="3" marker-end="url(#forward-arrow)"/>
    <text x="650" y="750" text-anchor="start" font-size="14">Forward Propagation</text>
    
    <line x1="750" y1="745" x2="820" y2="745" stroke="#E24A4A" stroke-width="3" marker-end="url(#backward-arrow)"/>
    <text x="850" y="750" text-anchor="start" font-size="14">Backward Propagation</text>

    <!-- Notation Key -->
    <text x="700" y="670" text-anchor="middle" font-size="14">η: learning rate, m: batch size, ⊙: element-wise multiplication, ᵀ: transpose</text>
</svg>
